# xmcd
#
# Track frame offsets:
#	150
#	13133
#	29600
#	49120
#	65895
#	82188
#	97963
#	115361
#	134526
#	144989
#	166627
#	188313
#
# Disc length: 2718 seconds
#
# Revision: 3
# Processed by: cddbd v1.5.2PL0 Copyright (c) Steve Scherf et al.
# Submitted via: audiograbber 1.83.01
#
DISCID=a20a9c0c
DTITLE=Rick Fines - Out of the Living Room
DYEAR=1998
DGENRE=Blues
TTITLE0=My Baby Knows
TTITLE1=Careful What You Want
TTITLE2=Where Birds Sing
TTITLE3=Proud Papa
TTITLE4=That s How I Feel
TTITLE5=2000 Miles Back home
TTITLE6=Out of the Living Room
TTITLE7=Back in the Backwoods
TTITLE8=Richland Women Blues
TTITLE9=Coffee, One Cream
TTITLE10=Same Boat
TTITLE11=No Expectations
EXTD=Canadian Blues Artist YEAR: 1998
EXTT0=
EXTT1=
EXTT2=
EXTT3=
EXTT4=
EXTT5=
EXTT6=
EXTT7=
EXTT8=
EXTT9=
EXTT10=
EXTT11=
PLAYORDER=
